<?xml version="1.0" encoding="UTF-8"?>
<svg xmlns="http://www.w3.org/2000/svg" xmlns:xlink="http://www.w3.org/1999/xlink" width="810pt" height="809.999993pt" viewBox="0 0 810 809.999993" version="1.2">
<defs>
<clipPath id="clip1">
  <path d="M 810 405 C 810 411.628906 809.835938 418.253906 809.511719 424.871094 C 809.1875 431.492188 808.699219 438.101562 808.050781 444.695312 C 807.398438 451.292969 806.589844 457.871094 805.617188 464.425781 C 804.644531 470.980469 803.511719 477.511719 802.21875 484.011719 C 800.925781 490.511719 799.472656 496.976562 797.863281 503.40625 C 796.253906 509.835938 794.484375 516.222656 792.5625 522.566406 C 790.636719 528.90625 788.558594 535.199219 786.324219 541.441406 C 784.09375 547.679688 781.707031 553.863281 779.171875 559.988281 C 776.632812 566.109375 773.949219 572.167969 771.117188 578.160156 C 768.28125 584.152344 765.300781 590.070312 762.179688 595.914062 C 759.054688 601.761719 755.789062 607.527344 752.378906 613.210938 C 748.972656 618.898438 745.425781 624.496094 741.746094 630.003906 C 738.0625 635.515625 734.246094 640.933594 730.300781 646.257812 C 726.351562 651.582031 722.273438 656.804688 718.070312 661.929688 C 713.863281 667.054688 709.535156 672.070312 705.085938 676.980469 C 700.632812 681.890625 696.066406 686.691406 691.378906 691.378906 C 686.691406 696.066406 681.890625 700.632812 676.980469 705.085938 C 672.070312 709.535156 667.054688 713.863281 661.929688 718.070312 C 656.804688 722.273438 651.582031 726.351562 646.257812 730.300781 C 640.933594 734.246094 635.515625 738.0625 630.003906 741.746094 C 624.496094 745.425781 618.898438 748.972656 613.210938 752.378906 C 607.527344 755.789062 601.761719 759.054688 595.914062 762.179688 C 590.070312 765.300781 584.152344 768.28125 578.160156 771.117188 C 572.167969 773.949219 566.109375 776.632812 559.988281 779.171875 C 553.863281 781.707031 547.679688 784.09375 541.441406 786.324219 C 535.199219 788.558594 528.90625 790.636719 522.566406 792.5625 C 516.222656 794.484375 509.835938 796.253906 503.40625 797.863281 C 496.976562 799.472656 490.511719 800.925781 484.011719 802.21875 C 477.511719 803.511719 470.980469 804.644531 464.425781 805.617188 C 457.871094 806.589844 451.292969 807.398438 444.695312 808.050781 C 438.101562 808.699219 431.492188 809.1875 424.871094 809.511719 C 418.253906 809.835938 411.628906 810 405 810 C 398.371094 810 391.746094 809.835938 385.128906 809.511719 C 378.507812 809.1875 371.898438 808.699219 365.304688 808.050781 C 358.707031 807.398438 352.128906 806.589844 345.574219 805.617188 C 339.019531 804.644531 332.488281 803.511719 325.988281 802.21875 C 319.488281 800.925781 313.023438 799.472656 306.59375 797.863281 C 300.164062 796.253906 293.777344 794.484375 287.433594 792.5625 C 281.09375 790.636719 274.800781 788.558594 268.558594 786.324219 C 262.320312 784.09375 256.136719 781.707031 250.011719 779.171875 C 243.890625 776.632812 237.832031 773.949219 231.839844 771.117188 C 225.847656 768.28125 219.929688 765.300781 214.085938 762.179688 C 208.238281 759.054688 202.472656 755.789062 196.789062 752.378906 C 191.101562 748.972656 185.503906 745.425781 179.992188 741.746094 C 174.484375 738.0625 169.066406 734.246094 163.742188 730.300781 C 158.417969 726.351562 153.195312 722.273438 148.070312 718.070312 C 142.945312 713.863281 137.929688 709.535156 133.019531 705.085938 C 128.109375 700.632812 123.308594 696.066406 118.621094 691.378906 C 113.933594 686.691406 109.367188 681.890625 104.914062 676.980469 C 100.464844 672.070312 96.136719 667.054688 91.929688 661.929688 C 87.726562 656.804688 83.648438 651.582031 79.699219 646.257812 C 75.753906 640.933594 71.9375 635.515625 68.253906 630.003906 C 64.574219 624.496094 61.027344 618.898438 57.621094 613.210938 C 54.210938 607.527344 50.945312 601.761719 47.820312 595.914062 C 44.699219 590.070312 41.71875 584.152344 38.882812 578.160156 C 36.050781 572.167969 33.367188 566.109375 30.828125 559.988281 C 28.292969 553.863281 25.90625 547.679688 23.675781 541.441406 C 21.441406 535.199219 19.363281 528.90625 17.4375 522.566406 C 15.515625 516.222656 13.746094 509.835938 12.136719 503.40625 C 10.527344 496.976562 9.074219 490.511719 7.78125 484.011719 C 6.488281 477.511719 5.355469 470.980469 4.382812 464.425781 C 3.410156 457.871094 2.601562 451.292969 1.949219 444.695312 C 1.300781 438.101562 0.8125 431.492188 0.488281 424.871094 C 0.164062 418.253906 0 411.628906 0 405 C 0 398.371094 0.164062 391.746094 0.488281 385.128906 C 0.8125 378.507812 1.300781 371.898438 1.949219 365.304688 C 2.601562 358.707031 3.410156 352.128906 4.382812 345.574219 C 5.355469 339.019531 6.488281 332.488281 7.78125 325.988281 C 9.074219 319.488281 10.527344 313.023438 12.136719 306.59375 C 13.746094 300.164062 15.515625 293.777344 17.4375 287.433594 C 19.363281 281.09375 21.441406 274.800781 23.675781 268.558594 C 25.90625 262.320312 28.292969 256.136719 30.828125 250.011719 C 33.367188 243.890625 36.050781 237.832031 38.882812 231.839844 C 41.71875 225.847656 44.699219 219.929688 47.820312 214.085938 C 50.945312 208.238281 54.210938 202.472656 57.621094 196.789062 C 61.027344 191.101562 64.574219 185.503906 68.253906 179.992188 C 71.9375 174.484375 75.753906 169.066406 79.699219 163.742188 C 83.648438 158.417969 87.726562 153.195312 91.929688 148.070312 C 96.136719 142.945312 100.464844 137.929688 104.914062 133.019531 C 109.367188 128.109375 113.933594 123.308594 118.621094 118.621094 C 123.308594 113.933594 128.109375 109.367188 133.019531 104.914062 C 137.929688 100.464844 142.945312 96.136719 148.070312 91.929688 C 153.195312 87.726562 158.417969 83.648438 163.742188 79.699219 C 169.066406 75.753906 174.484375 71.9375 179.992188 68.253906 C 185.503906 64.574219 191.101562 61.027344 196.789062 57.621094 C 202.472656 54.210938 208.238281 50.945312 214.085938 47.820312 C 219.929688 44.699219 225.847656 41.71875 231.839844 38.882812 C 237.832031 36.050781 243.890625 33.367188 250.011719 30.828125 C 256.136719 28.292969 262.320312 25.90625 268.558594 23.675781 C 274.800781 21.441406 281.09375 19.363281 287.433594 17.4375 C 293.777344 15.515625 300.164062 13.746094 306.59375 12.136719 C 313.023438 10.527344 319.488281 9.074219 325.988281 7.78125 C 332.488281 6.488281 339.019531 5.355469 345.574219 4.382812 C 352.128906 3.410156 358.707031 2.601562 365.304688 1.949219 C 371.898438 1.300781 378.507812 0.8125 385.128906 0.488281 C 391.746094 0.164062 398.371094 0 405 0 C 411.628906 0 418.253906 0.164062 424.871094 0.488281 C 431.492188 0.8125 438.101562 1.300781 444.695312 1.949219 C 451.292969 2.601562 457.871094 3.410156 464.425781 4.382812 C 470.980469 5.355469 477.511719 6.488281 484.011719 7.78125 C 490.511719 9.074219 496.976562 10.527344 503.40625 12.136719 C 509.835938 13.746094 516.222656 15.515625 522.566406 17.4375 C 528.90625 19.363281 535.199219 21.441406 541.441406 23.675781 C 547.679688 25.90625 553.863281 28.292969 559.988281 30.828125 C 566.109375 33.367188 572.167969 36.050781 578.160156 38.882812 C 584.152344 41.71875 590.070312 44.699219 595.914062 47.820312 C 601.761719 50.945312 607.527344 54.210938 613.210938 57.621094 C 618.898438 61.027344 624.496094 64.574219 630.003906 68.253906 C 635.515625 71.9375 640.933594 75.753906 646.257812 79.699219 C 651.582031 83.648438 656.804688 87.726562 661.929688 91.929688 C 667.054688 96.136719 672.070312 100.464844 676.980469 104.914062 C 681.890625 109.367188 686.691406 113.933594 691.378906 118.621094 C 696.066406 123.308594 700.632812 128.109375 705.085938 133.019531 C 709.535156 137.929688 713.863281 142.945312 718.070312 148.070312 C 722.273438 153.195312 726.351562 158.417969 730.300781 163.742188 C 734.246094 169.066406 738.0625 174.484375 741.746094 179.992188 C 745.425781 185.503906 748.972656 191.101562 752.378906 196.789062 C 755.789062 202.472656 759.054688 208.238281 762.179688 214.085938 C 765.300781 219.929688 768.28125 225.847656 771.117188 231.839844 C 773.949219 237.832031 776.632812 243.890625 779.171875 250.011719 C 781.707031 256.136719 784.09375 262.320312 786.324219 268.558594 C 788.558594 274.800781 790.636719 281.09375 792.5625 287.433594 C 794.484375 293.777344 796.253906 300.164062 797.863281 306.59375 C 799.472656 313.023438 800.925781 319.488281 802.21875 325.988281 C 803.511719 332.488281 804.644531 339.019531 805.617188 345.574219 C 806.589844 352.128906 807.398438 358.707031 808.050781 365.304688 C 808.699219 371.898438 809.1875 378.507812 809.511719 385.128906 C 809.835938 391.746094 810 398.371094 810 405 Z M 810 405 "/>
</clipPath>
<linearGradient id="linear0" gradientUnits="userSpaceOnUse" x1="-0" y1="-0" x2="1.004902" y2="0.99505" gradientTransform="matrix(809.999933,0,0,809.999933,0.0000035,0.00002)">
<stop offset="0" style="stop-color:rgb(91.799927%,88.598633%,84.298706%);stop-opacity:1;"/>
<stop offset="0.0078125" style="stop-color:rgb(91.699219%,88.464355%,84.144592%);stop-opacity:1;"/>
<stop offset="0.015625" style="stop-color:rgb(91.499329%,88.194275%,83.836365%);stop-opacity:1;"/>
<stop offset="0.0234375" style="stop-color:rgb(91.297913%,87.92572%,83.526611%);stop-opacity:1;"/>
<stop offset="0.03125" style="stop-color:rgb(91.098022%,87.65564%,83.218384%);stop-opacity:1;"/>
<stop offset="0.0390625" style="stop-color:rgb(90.898132%,87.385559%,82.90863%);stop-opacity:1;"/>
<stop offset="0.046875" style="stop-color:rgb(90.698242%,87.117004%,82.600403%);stop-opacity:1;"/>
<stop offset="0.0546875" style="stop-color:rgb(90.498352%,86.846924%,82.292175%);stop-opacity:1;"/>
<stop offset="0.0625" style="stop-color:rgb(90.298462%,86.578369%,81.982422%);stop-opacity:1;"/>
<stop offset="0.0703125" style="stop-color:rgb(90.098572%,86.308289%,81.674194%);stop-opacity:1;"/>
<stop offset="0.078125" style="stop-color:rgb(89.898682%,86.039734%,81.365967%);stop-opacity:1;"/>
<stop offset="0.0859375" style="stop-color:rgb(89.698792%,85.769653%,81.056213%);stop-opacity:1;"/>
<stop offset="0.09375" style="stop-color:rgb(89.498901%,85.499573%,80.747986%);stop-opacity:1;"/>
<stop offset="0.101562" style="stop-color:rgb(89.299011%,85.231018%,80.438232%);stop-opacity:1;"/>
<stop offset="0.109375" style="stop-color:rgb(89.099121%,84.960938%,80.130005%);stop-opacity:1;"/>
<stop offset="0.117188" style="stop-color:rgb(88.899231%,84.692383%,79.821777%);stop-opacity:1;"/>
<stop offset="0.125" style="stop-color:rgb(88.699341%,84.422302%,79.512024%);stop-opacity:1;"/>
<stop offset="0.132812" style="stop-color:rgb(88.499451%,84.153748%,79.203796%);stop-opacity:1;"/>
<stop offset="0.140625" style="stop-color:rgb(88.299561%,83.883667%,78.894043%);stop-opacity:1;"/>
<stop offset="0.148438" style="stop-color:rgb(88.09967%,83.613586%,78.585815%);stop-opacity:1;"/>
<stop offset="0.15625" style="stop-color:rgb(87.89978%,83.345032%,78.277588%);stop-opacity:1;"/>
<stop offset="0.164063" style="stop-color:rgb(87.69989%,83.074951%,77.967834%);stop-opacity:1;"/>
<stop offset="0.171875" style="stop-color:rgb(87.5%,82.806396%,77.659607%);stop-opacity:1;"/>
<stop offset="0.179687" style="stop-color:rgb(87.30011%,82.536316%,77.351379%);stop-opacity:1;"/>
<stop offset="0.1875" style="stop-color:rgb(87.10022%,82.266235%,77.041626%);stop-opacity:1;"/>
<stop offset="0.195312" style="stop-color:rgb(86.90033%,81.997681%,76.733398%);stop-opacity:1;"/>
<stop offset="0.203125" style="stop-color:rgb(86.698914%,81.7276%,76.423645%);stop-opacity:1;"/>
<stop offset="0.210937" style="stop-color:rgb(86.499023%,81.459045%,76.115417%);stop-opacity:1;"/>
<stop offset="0.21875" style="stop-color:rgb(86.299133%,81.188965%,75.80719%);stop-opacity:1;"/>
<stop offset="0.226562" style="stop-color:rgb(86.099243%,80.92041%,75.497437%);stop-opacity:1;"/>
<stop offset="0.234375" style="stop-color:rgb(85.899353%,80.65033%,75.189209%);stop-opacity:1;"/>
<stop offset="0.242188" style="stop-color:rgb(85.699463%,80.380249%,74.879456%);stop-opacity:1;"/>
<stop offset="0.25" style="stop-color:rgb(85.499573%,80.111694%,74.571228%);stop-opacity:1;"/>
<stop offset="0.257812" style="stop-color:rgb(85.299683%,79.841614%,74.263%);stop-opacity:1;"/>
<stop offset="0.265625" style="stop-color:rgb(85.099792%,79.573059%,73.953247%);stop-opacity:1;"/>
<stop offset="0.273438" style="stop-color:rgb(84.899902%,79.302979%,73.64502%);stop-opacity:1;"/>
<stop offset="0.28125" style="stop-color:rgb(84.700012%,79.034424%,73.336792%);stop-opacity:1;"/>
<stop offset="0.289063" style="stop-color:rgb(84.500122%,78.764343%,73.027039%);stop-opacity:1;"/>
<stop offset="0.296875" style="stop-color:rgb(84.300232%,78.494263%,72.718811%);stop-opacity:1;"/>
<stop offset="0.304688" style="stop-color:rgb(84.100342%,78.225708%,72.409058%);stop-opacity:1;"/>
<stop offset="0.3125" style="stop-color:rgb(83.900452%,77.955627%,72.10083%);stop-opacity:1;"/>
<stop offset="0.320312" style="stop-color:rgb(83.700562%,77.687073%,71.792603%);stop-opacity:1;"/>
<stop offset="0.328125" style="stop-color:rgb(83.500671%,77.416992%,71.482849%);stop-opacity:1;"/>
<stop offset="0.335938" style="stop-color:rgb(83.300781%,77.146912%,71.174622%);stop-opacity:1;"/>
<stop offset="0.34375" style="stop-color:rgb(83.100891%,76.878357%,70.864868%);stop-opacity:1;"/>
<stop offset="0.351562" style="stop-color:rgb(82.901001%,76.608276%,70.556641%);stop-opacity:1;"/>
<stop offset="0.359375" style="stop-color:rgb(82.701111%,76.339722%,70.248413%);stop-opacity:1;"/>
<stop offset="0.367188" style="stop-color:rgb(82.501221%,76.069641%,69.93866%);stop-opacity:1;"/>
<stop offset="0.375" style="stop-color:rgb(82.301331%,75.801086%,69.630432%);stop-opacity:1;"/>
<stop offset="0.382812" style="stop-color:rgb(82.099915%,75.531006%,69.322205%);stop-opacity:1;"/>
<stop offset="0.390625" style="stop-color:rgb(81.900024%,75.260925%,69.012451%);stop-opacity:1;"/>
<stop offset="0.398437" style="stop-color:rgb(81.700134%,74.992371%,68.704224%);stop-opacity:1;"/>
<stop offset="0.40625" style="stop-color:rgb(81.500244%,74.72229%,68.39447%);stop-opacity:1;"/>
<stop offset="0.414062" style="stop-color:rgb(81.300354%,74.453735%,68.086243%);stop-opacity:1;"/>
<stop offset="0.421875" style="stop-color:rgb(81.100464%,74.183655%,67.778015%);stop-opacity:1;"/>
<stop offset="0.429687" style="stop-color:rgb(80.900574%,73.9151%,67.468262%);stop-opacity:1;"/>
<stop offset="0.4375" style="stop-color:rgb(80.700684%,73.64502%,67.160034%);stop-opacity:1;"/>
<stop offset="0.445312" style="stop-color:rgb(80.500793%,73.374939%,66.850281%);stop-opacity:1;"/>
<stop offset="0.453125" style="stop-color:rgb(80.300903%,73.106384%,66.542053%);stop-opacity:1;"/>
<stop offset="0.460938" style="stop-color:rgb(80.101013%,72.836304%,66.233826%);stop-opacity:1;"/>
<stop offset="0.46875" style="stop-color:rgb(79.901123%,72.567749%,65.924072%);stop-opacity:1;"/>
<stop offset="0.476562" style="stop-color:rgb(79.701233%,72.297668%,65.615845%);stop-opacity:1;"/>
<stop offset="0.484375" style="stop-color:rgb(79.501343%,72.027588%,65.307617%);stop-opacity:1;"/>
<stop offset="0.492188" style="stop-color:rgb(79.301453%,71.759033%,64.997864%);stop-opacity:1;"/>
<stop offset="0.497537" style="stop-color:rgb(79.101562%,71.488953%,64.689636%);stop-opacity:1;"/>
<stop offset="0.5" style="stop-color:rgb(79.00238%,71.354675%,64.535522%);stop-opacity:1;"/>
<stop offset="0.502463" style="stop-color:rgb(78.901672%,71.220398%,64.379883%);stop-opacity:1;"/>
<stop offset="0.507812" style="stop-color:rgb(78.80249%,71.086121%,64.225769%);stop-opacity:1;"/>
<stop offset="0.515625" style="stop-color:rgb(78.701782%,70.950317%,64.071655%);stop-opacity:1;"/>
<stop offset="0.523437" style="stop-color:rgb(78.501892%,70.681763%,63.763428%);stop-opacity:1;"/>
<stop offset="0.53125" style="stop-color:rgb(78.302002%,70.411682%,63.453674%);stop-opacity:1;"/>
<stop offset="0.539063" style="stop-color:rgb(78.102112%,70.141602%,63.145447%);stop-opacity:1;"/>
<stop offset="0.546875" style="stop-color:rgb(77.902222%,69.873047%,62.835693%);stop-opacity:1;"/>
<stop offset="0.554688" style="stop-color:rgb(77.702332%,69.602966%,62.527466%);stop-opacity:1;"/>
<stop offset="0.5625" style="stop-color:rgb(77.500916%,69.334412%,62.219238%);stop-opacity:1;"/>
<stop offset="0.570313" style="stop-color:rgb(77.301025%,69.064331%,61.909485%);stop-opacity:1;"/>
<stop offset="0.578125" style="stop-color:rgb(77.101135%,68.79425%,61.601257%);stop-opacity:1;"/>
<stop offset="0.585938" style="stop-color:rgb(76.901245%,68.525696%,61.29303%);stop-opacity:1;"/>
<stop offset="0.59375" style="stop-color:rgb(76.701355%,68.255615%,60.983276%);stop-opacity:1;"/>
<stop offset="0.601562" style="stop-color:rgb(76.501465%,67.987061%,60.675049%);stop-opacity:1;"/>
<stop offset="0.609375" style="stop-color:rgb(76.301575%,67.71698%,60.365295%);stop-opacity:1;"/>
<stop offset="0.617188" style="stop-color:rgb(76.101685%,67.448425%,60.057068%);stop-opacity:1;"/>
<stop offset="0.625" style="stop-color:rgb(75.901794%,67.178345%,59.74884%);stop-opacity:1;"/>
<stop offset="0.632812" style="stop-color:rgb(75.701904%,66.908264%,59.439087%);stop-opacity:1;"/>
<stop offset="0.640625" style="stop-color:rgb(75.502014%,66.639709%,59.130859%);stop-opacity:1;"/>
<stop offset="0.648438" style="stop-color:rgb(75.302124%,66.369629%,58.822632%);stop-opacity:1;"/>
<stop offset="0.65625" style="stop-color:rgb(75.102234%,66.101074%,58.512878%);stop-opacity:1;"/>
<stop offset="0.664062" style="stop-color:rgb(74.902344%,65.830994%,58.204651%);stop-opacity:1;"/>
<stop offset="0.671875" style="stop-color:rgb(74.702454%,65.562439%,57.894897%);stop-opacity:1;"/>
<stop offset="0.679687" style="stop-color:rgb(74.502563%,65.292358%,57.58667%);stop-opacity:1;"/>
<stop offset="0.6875" style="stop-color:rgb(74.302673%,65.022278%,57.278442%);stop-opacity:1;"/>
<stop offset="0.695313" style="stop-color:rgb(74.102783%,64.753723%,56.968689%);stop-opacity:1;"/>
<stop offset="0.703125" style="stop-color:rgb(73.902893%,64.483643%,56.660461%);stop-opacity:1;"/>
<stop offset="0.710938" style="stop-color:rgb(73.703003%,64.215088%,56.350708%);stop-opacity:1;"/>
<stop offset="0.71875" style="stop-color:rgb(73.503113%,63.945007%,56.04248%);stop-opacity:1;"/>
<stop offset="0.726562" style="stop-color:rgb(73.303223%,63.674927%,55.734253%);stop-opacity:1;"/>
<stop offset="0.734375" style="stop-color:rgb(73.103333%,63.406372%,55.4245%);stop-opacity:1;"/>
<stop offset="0.742188" style="stop-color:rgb(72.901917%,63.136292%,55.116272%);stop-opacity:1;"/>
<stop offset="0.75" style="stop-color:rgb(72.702026%,62.867737%,54.808044%);stop-opacity:1;"/>
<stop offset="0.757812" style="stop-color:rgb(72.502136%,62.597656%,54.498291%);stop-opacity:1;"/>
<stop offset="0.765625" style="stop-color:rgb(72.302246%,62.329102%,54.190063%);stop-opacity:1;"/>
<stop offset="0.773438" style="stop-color:rgb(72.102356%,62.059021%,53.88031%);stop-opacity:1;"/>
<stop offset="0.78125" style="stop-color:rgb(71.902466%,61.78894%,53.572083%);stop-opacity:1;"/>
<stop offset="0.789062" style="stop-color:rgb(71.702576%,61.520386%,53.263855%);stop-opacity:1;"/>
<stop offset="0.796875" style="stop-color:rgb(71.502686%,61.250305%,52.954102%);stop-opacity:1;"/>
<stop offset="0.804687" style="stop-color:rgb(71.302795%,60.98175%,52.645874%);stop-opacity:1;"/>
<stop offset="0.8125" style="stop-color:rgb(71.102905%,60.71167%,52.336121%);stop-opacity:1;"/>
<stop offset="0.820312" style="stop-color:rgb(70.903015%,60.443115%,52.027893%);stop-opacity:1;"/>
<stop offset="0.828125" style="stop-color:rgb(70.703125%,60.173035%,51.719666%);stop-opacity:1;"/>
<stop offset="0.835937" style="stop-color:rgb(70.503235%,59.902954%,51.409912%);stop-opacity:1;"/>
<stop offset="0.84375" style="stop-color:rgb(70.303345%,59.634399%,51.101685%);stop-opacity:1;"/>
<stop offset="0.851562" style="stop-color:rgb(70.103455%,59.364319%,50.793457%);stop-opacity:1;"/>
<stop offset="0.859375" style="stop-color:rgb(69.903564%,59.095764%,50.483704%);stop-opacity:1;"/>
<stop offset="0.867188" style="stop-color:rgb(69.703674%,58.825684%,50.175476%);stop-opacity:1;"/>
<stop offset="0.875" style="stop-color:rgb(69.503784%,58.555603%,49.865723%);stop-opacity:1;"/>
<stop offset="0.882812" style="stop-color:rgb(69.303894%,58.287048%,49.557495%);stop-opacity:1;"/>
<stop offset="0.890625" style="stop-color:rgb(69.104004%,58.016968%,49.249268%);stop-opacity:1;"/>
<stop offset="0.898438" style="stop-color:rgb(68.904114%,57.748413%,48.939514%);stop-opacity:1;"/>
<stop offset="0.90625" style="stop-color:rgb(68.704224%,57.478333%,48.631287%);stop-opacity:1;"/>
<stop offset="0.914062" style="stop-color:rgb(68.504333%,57.209778%,48.321533%);stop-opacity:1;"/>
<stop offset="0.921875" style="stop-color:rgb(68.302917%,56.939697%,48.013306%);stop-opacity:1;"/>
<stop offset="0.929688" style="stop-color:rgb(68.103027%,56.669617%,47.705078%);stop-opacity:1;"/>
<stop offset="0.9375" style="stop-color:rgb(67.903137%,56.401062%,47.395325%);stop-opacity:1;"/>
<stop offset="0.945312" style="stop-color:rgb(67.703247%,56.130981%,47.087097%);stop-opacity:1;"/>
<stop offset="0.953125" style="stop-color:rgb(67.503357%,55.862427%,46.77887%);stop-opacity:1;"/>
<stop offset="0.960938" style="stop-color:rgb(67.303467%,55.592346%,46.469116%);stop-opacity:1;"/>
<stop offset="0.96875" style="stop-color:rgb(67.103577%,55.323792%,46.160889%);stop-opacity:1;"/>
<stop offset="0.976562" style="stop-color:rgb(66.903687%,55.053711%,45.851135%);stop-opacity:1;"/>
<stop offset="0.984375" style="stop-color:rgb(66.703796%,54.78363%,45.542908%);stop-opacity:1;"/>
<stop offset="0.992187" style="stop-color:rgb(66.503906%,54.515076%,45.23468%);stop-opacity:1;"/>
<stop offset="1" style="stop-color:rgb(66.304016%,54.244995%,44.924927%);stop-opacity:1;"/>
</linearGradient>
</defs>
<g id="surface1">
<g clip-path="url(#clip1)" clip-rule="nonzero">
<rect x="0" y="0" width="810" height="809.999993" style="fill:url(#linear0);stroke:none;"/>
</g>
</g>
</svg>
